<mxfile host="app.diagrams.net" modified="2021-09-15T14:09:56.198Z" agent="5.0 (Windows NT 10.0; Win64; x64) AppleWebKit/537.36 (KHTML, like Gecko) Chrome/93.0.4577.63 Safari/537.36" etag="14TnIBmZTCl7wzWnfvB9" version="15.2.7" type="github">
  <diagram id="lS9gEuEYb2Qw7tAvBpl1" name="Page-1">
    <mxGraphModel dx="1422" dy="794" grid="1" gridSize="10" guides="1" tooltips="1" connect="1" arrows="1" fold="1" page="1" pageScale="1" pageWidth="827" pageHeight="1169" math="0" shadow="0">
      <root>
        <mxCell id="0" />
        <mxCell id="1" parent="0" />
        <mxCell id="4QljDFxPX6gw_J1ZpyLn-2" value="" style="edgeStyle=orthogonalEdgeStyle;rounded=0;orthogonalLoop=1;jettySize=auto;html=1;" edge="1" parent="1" source="pV3M_QZJWwmFhSBJMzRY-1" target="4QljDFxPX6gw_J1ZpyLn-1">
          <mxGeometry relative="1" as="geometry" />
        </mxCell>
        <mxCell id="pV3M_QZJWwmFhSBJMzRY-1" value="Begin" style="ellipse;whiteSpace=wrap;html=1;" parent="1" vertex="1">
          <mxGeometry x="340" y="40" width="120" height="80" as="geometry" />
        </mxCell>
        <mxCell id="pV3M_QZJWwmFhSBJMzRY-20" value="&lt;span&gt;End&lt;/span&gt;" style="ellipse;whiteSpace=wrap;html=1;" parent="1" vertex="1">
          <mxGeometry x="325" y="720" width="120" height="60" as="geometry" />
        </mxCell>
        <mxCell id="4QljDFxPX6gw_J1ZpyLn-4" value="" style="edgeStyle=orthogonalEdgeStyle;rounded=0;orthogonalLoop=1;jettySize=auto;html=1;" edge="1" parent="1" source="4QljDFxPX6gw_J1ZpyLn-1" target="4QljDFxPX6gw_J1ZpyLn-3">
          <mxGeometry relative="1" as="geometry" />
        </mxCell>
        <mxCell id="4QljDFxPX6gw_J1ZpyLn-1" value="Nhập filing status&lt;br&gt;và taxable income&lt;br&gt;(fs,ti)" style="shape=parallelogram;perimeter=parallelogramPerimeter;whiteSpace=wrap;html=1;fixedSize=1;" vertex="1" parent="1">
          <mxGeometry x="330" y="150" width="140" height="80" as="geometry" />
        </mxCell>
        <mxCell id="4QljDFxPX6gw_J1ZpyLn-6" value="FALSE" style="edgeStyle=orthogonalEdgeStyle;rounded=0;orthogonalLoop=1;jettySize=auto;html=1;" edge="1" parent="1" source="4QljDFxPX6gw_J1ZpyLn-3" target="4QljDFxPX6gw_J1ZpyLn-5">
          <mxGeometry relative="1" as="geometry" />
        </mxCell>
        <mxCell id="4QljDFxPX6gw_J1ZpyLn-12" value="" style="edgeStyle=orthogonalEdgeStyle;rounded=0;orthogonalLoop=1;jettySize=auto;html=1;" edge="1" parent="1" source="4QljDFxPX6gw_J1ZpyLn-3" target="4QljDFxPX6gw_J1ZpyLn-11">
          <mxGeometry relative="1" as="geometry" />
        </mxCell>
        <mxCell id="4QljDFxPX6gw_J1ZpyLn-3" value="fs == &quot;single&quot;" style="rhombus;whiteSpace=wrap;html=1;" vertex="1" parent="1">
          <mxGeometry x="140" y="260" width="110" height="100" as="geometry" />
        </mxCell>
        <mxCell id="4QljDFxPX6gw_J1ZpyLn-8" value="FALSE" style="edgeStyle=orthogonalEdgeStyle;rounded=0;orthogonalLoop=1;jettySize=auto;html=1;" edge="1" parent="1" source="4QljDFxPX6gw_J1ZpyLn-5" target="4QljDFxPX6gw_J1ZpyLn-7">
          <mxGeometry relative="1" as="geometry" />
        </mxCell>
        <mxCell id="4QljDFxPX6gw_J1ZpyLn-5" value="&lt;font style=&quot;font-size: 12px&quot;&gt;fs ==&amp;nbsp;&lt;span style=&quot;font-family: &amp;#34;times new roman&amp;#34;&quot;&gt;married&lt;br&gt;filing jointly&lt;/span&gt;&lt;/font&gt;" style="rhombus;whiteSpace=wrap;html=1;" vertex="1" parent="1">
          <mxGeometry x="142.5" y="390" width="105" height="110" as="geometry" />
        </mxCell>
        <mxCell id="4QljDFxPX6gw_J1ZpyLn-10" value="FALSE" style="edgeStyle=orthogonalEdgeStyle;rounded=0;orthogonalLoop=1;jettySize=auto;html=1;" edge="1" parent="1" source="4QljDFxPX6gw_J1ZpyLn-7" target="4QljDFxPX6gw_J1ZpyLn-9">
          <mxGeometry relative="1" as="geometry" />
        </mxCell>
        <mxCell id="4QljDFxPX6gw_J1ZpyLn-7" value="" style="rhombus;whiteSpace=wrap;html=1;" vertex="1" parent="1">
          <mxGeometry x="155" y="520" width="80" height="80" as="geometry" />
        </mxCell>
        <mxCell id="4QljDFxPX6gw_J1ZpyLn-9" value="" style="rhombus;whiteSpace=wrap;html=1;" vertex="1" parent="1">
          <mxGeometry x="155" y="630" width="80" height="80" as="geometry" />
        </mxCell>
        <mxCell id="4QljDFxPX6gw_J1ZpyLn-14" value="FALSE" style="edgeStyle=orthogonalEdgeStyle;rounded=0;orthogonalLoop=1;jettySize=auto;html=1;" edge="1" parent="1" source="4QljDFxPX6gw_J1ZpyLn-11" target="4QljDFxPX6gw_J1ZpyLn-13">
          <mxGeometry relative="1" as="geometry" />
        </mxCell>
        <mxCell id="4QljDFxPX6gw_J1ZpyLn-41" value="" style="edgeStyle=orthogonalEdgeStyle;rounded=0;orthogonalLoop=1;jettySize=auto;html=1;" edge="1" parent="1" source="4QljDFxPX6gw_J1ZpyLn-11" target="4QljDFxPX6gw_J1ZpyLn-40">
          <mxGeometry relative="1" as="geometry" />
        </mxCell>
        <mxCell id="4QljDFxPX6gw_J1ZpyLn-11" value="ti &amp;lt;= 8350" style="rhombus;whiteSpace=wrap;html=1;" vertex="1" parent="1">
          <mxGeometry x="345" y="270" width="80" height="80" as="geometry" />
        </mxCell>
        <mxCell id="4QljDFxPX6gw_J1ZpyLn-16" value="FALSE" style="edgeStyle=orthogonalEdgeStyle;rounded=0;orthogonalLoop=1;jettySize=auto;html=1;" edge="1" parent="1" source="4QljDFxPX6gw_J1ZpyLn-13" target="4QljDFxPX6gw_J1ZpyLn-15">
          <mxGeometry relative="1" as="geometry" />
        </mxCell>
        <mxCell id="4QljDFxPX6gw_J1ZpyLn-39" value="" style="edgeStyle=orthogonalEdgeStyle;rounded=0;orthogonalLoop=1;jettySize=auto;html=1;" edge="1" parent="1" source="4QljDFxPX6gw_J1ZpyLn-13" target="4QljDFxPX6gw_J1ZpyLn-38">
          <mxGeometry relative="1" as="geometry" />
        </mxCell>
        <mxCell id="4QljDFxPX6gw_J1ZpyLn-13" value="ti &amp;lt;= 33950" style="rhombus;whiteSpace=wrap;html=1;" vertex="1" parent="1">
          <mxGeometry x="470" y="270" width="80" height="80" as="geometry" />
        </mxCell>
        <mxCell id="4QljDFxPX6gw_J1ZpyLn-18" value="FALSE" style="edgeStyle=orthogonalEdgeStyle;rounded=0;orthogonalLoop=1;jettySize=auto;html=1;" edge="1" parent="1" source="4QljDFxPX6gw_J1ZpyLn-15" target="4QljDFxPX6gw_J1ZpyLn-17">
          <mxGeometry relative="1" as="geometry" />
        </mxCell>
        <mxCell id="4QljDFxPX6gw_J1ZpyLn-37" value="" style="edgeStyle=orthogonalEdgeStyle;rounded=0;orthogonalLoop=1;jettySize=auto;html=1;" edge="1" parent="1" source="4QljDFxPX6gw_J1ZpyLn-15" target="4QljDFxPX6gw_J1ZpyLn-36">
          <mxGeometry relative="1" as="geometry" />
        </mxCell>
        <mxCell id="4QljDFxPX6gw_J1ZpyLn-15" value="ti &amp;lt;= 82250" style="rhombus;whiteSpace=wrap;html=1;" vertex="1" parent="1">
          <mxGeometry x="600" y="270" width="80" height="80" as="geometry" />
        </mxCell>
        <mxCell id="4QljDFxPX6gw_J1ZpyLn-20" value="FALSE" style="edgeStyle=orthogonalEdgeStyle;rounded=0;orthogonalLoop=1;jettySize=auto;html=1;" edge="1" parent="1" source="4QljDFxPX6gw_J1ZpyLn-17" target="4QljDFxPX6gw_J1ZpyLn-19">
          <mxGeometry relative="1" as="geometry" />
        </mxCell>
        <mxCell id="4QljDFxPX6gw_J1ZpyLn-35" value="" style="edgeStyle=orthogonalEdgeStyle;rounded=0;orthogonalLoop=1;jettySize=auto;html=1;" edge="1" parent="1" source="4QljDFxPX6gw_J1ZpyLn-17" target="4QljDFxPX6gw_J1ZpyLn-34">
          <mxGeometry relative="1" as="geometry" />
        </mxCell>
        <mxCell id="4QljDFxPX6gw_J1ZpyLn-17" value="ti &amp;lt;= 171550" style="rhombus;whiteSpace=wrap;html=1;" vertex="1" parent="1">
          <mxGeometry x="720" y="270" width="80" height="80" as="geometry" />
        </mxCell>
        <mxCell id="4QljDFxPX6gw_J1ZpyLn-29" value="FALSE" style="edgeStyle=orthogonalEdgeStyle;rounded=0;orthogonalLoop=1;jettySize=auto;html=1;" edge="1" parent="1" source="4QljDFxPX6gw_J1ZpyLn-19" target="4QljDFxPX6gw_J1ZpyLn-28">
          <mxGeometry relative="1" as="geometry" />
        </mxCell>
        <mxCell id="4QljDFxPX6gw_J1ZpyLn-32" value="TRUE" style="edgeStyle=orthogonalEdgeStyle;rounded=0;orthogonalLoop=1;jettySize=auto;html=1;" edge="1" parent="1" source="4QljDFxPX6gw_J1ZpyLn-19" target="4QljDFxPX6gw_J1ZpyLn-31">
          <mxGeometry relative="1" as="geometry" />
        </mxCell>
        <mxCell id="4QljDFxPX6gw_J1ZpyLn-19" value="ti &amp;lt;= 372950" style="rhombus;whiteSpace=wrap;html=1;" vertex="1" parent="1">
          <mxGeometry x="840" y="270" width="80" height="80" as="geometry" />
        </mxCell>
        <mxCell id="4QljDFxPX6gw_J1ZpyLn-30" value="" style="edgeStyle=orthogonalEdgeStyle;rounded=0;orthogonalLoop=1;jettySize=auto;html=1;exitX=0.5;exitY=1;exitDx=0;exitDy=0;" edge="1" parent="1" source="4QljDFxPX6gw_J1ZpyLn-28" target="pV3M_QZJWwmFhSBJMzRY-20">
          <mxGeometry relative="1" as="geometry">
            <Array as="points">
              <mxPoint x="1000" y="750" />
            </Array>
          </mxGeometry>
        </mxCell>
        <mxCell id="4QljDFxPX6gw_J1ZpyLn-28" value="Tax Rates = 35%" style="shape=parallelogram;perimeter=parallelogramPerimeter;whiteSpace=wrap;html=1;fixedSize=1;" vertex="1" parent="1">
          <mxGeometry x="940" y="480" width="120" height="60" as="geometry" />
        </mxCell>
        <mxCell id="4QljDFxPX6gw_J1ZpyLn-33" value="" style="edgeStyle=orthogonalEdgeStyle;rounded=0;orthogonalLoop=1;jettySize=auto;html=1;" edge="1" parent="1" source="4QljDFxPX6gw_J1ZpyLn-31" target="pV3M_QZJWwmFhSBJMzRY-20">
          <mxGeometry relative="1" as="geometry">
            <Array as="points">
              <mxPoint x="880" y="750" />
            </Array>
          </mxGeometry>
        </mxCell>
        <mxCell id="4QljDFxPX6gw_J1ZpyLn-31" value="Tax Rates = 33%" style="shape=parallelogram;perimeter=parallelogramPerimeter;whiteSpace=wrap;html=1;fixedSize=1;" vertex="1" parent="1">
          <mxGeometry x="820" y="480" width="120" height="60" as="geometry" />
        </mxCell>
        <mxCell id="4QljDFxPX6gw_J1ZpyLn-42" value="" style="edgeStyle=orthogonalEdgeStyle;rounded=0;orthogonalLoop=1;jettySize=auto;html=1;" edge="1" parent="1" source="4QljDFxPX6gw_J1ZpyLn-34" target="pV3M_QZJWwmFhSBJMzRY-20">
          <mxGeometry relative="1" as="geometry">
            <Array as="points">
              <mxPoint x="760" y="750" />
            </Array>
          </mxGeometry>
        </mxCell>
        <mxCell id="4QljDFxPX6gw_J1ZpyLn-34" value="Tax Rates = 28%" style="shape=parallelogram;perimeter=parallelogramPerimeter;whiteSpace=wrap;html=1;fixedSize=1;" vertex="1" parent="1">
          <mxGeometry x="700" y="480" width="120" height="60" as="geometry" />
        </mxCell>
        <mxCell id="4QljDFxPX6gw_J1ZpyLn-43" value="" style="edgeStyle=orthogonalEdgeStyle;rounded=0;orthogonalLoop=1;jettySize=auto;html=1;" edge="1" parent="1" source="4QljDFxPX6gw_J1ZpyLn-36" target="pV3M_QZJWwmFhSBJMzRY-20">
          <mxGeometry relative="1" as="geometry">
            <Array as="points">
              <mxPoint x="640" y="750" />
            </Array>
          </mxGeometry>
        </mxCell>
        <mxCell id="4QljDFxPX6gw_J1ZpyLn-36" value="Tax Rates = 25%" style="shape=parallelogram;perimeter=parallelogramPerimeter;whiteSpace=wrap;html=1;fixedSize=1;" vertex="1" parent="1">
          <mxGeometry x="580" y="480" width="120" height="60" as="geometry" />
        </mxCell>
        <mxCell id="4QljDFxPX6gw_J1ZpyLn-44" value="" style="edgeStyle=orthogonalEdgeStyle;rounded=0;orthogonalLoop=1;jettySize=auto;html=1;" edge="1" parent="1" source="4QljDFxPX6gw_J1ZpyLn-38" target="pV3M_QZJWwmFhSBJMzRY-20">
          <mxGeometry relative="1" as="geometry">
            <Array as="points">
              <mxPoint x="510" y="750" />
            </Array>
          </mxGeometry>
        </mxCell>
        <mxCell id="4QljDFxPX6gw_J1ZpyLn-38" value="Tax Rates = 15%" style="shape=parallelogram;perimeter=parallelogramPerimeter;whiteSpace=wrap;html=1;fixedSize=1;" vertex="1" parent="1">
          <mxGeometry x="450" y="480" width="120" height="60" as="geometry" />
        </mxCell>
        <mxCell id="4QljDFxPX6gw_J1ZpyLn-46" value="" style="edgeStyle=orthogonalEdgeStyle;rounded=0;orthogonalLoop=1;jettySize=auto;html=1;" edge="1" parent="1" source="4QljDFxPX6gw_J1ZpyLn-40" target="pV3M_QZJWwmFhSBJMzRY-20">
          <mxGeometry relative="1" as="geometry" />
        </mxCell>
        <mxCell id="4QljDFxPX6gw_J1ZpyLn-40" value="Tax Rates = 10%" style="shape=parallelogram;perimeter=parallelogramPerimeter;whiteSpace=wrap;html=1;fixedSize=1;" vertex="1" parent="1">
          <mxGeometry x="325" y="480" width="120" height="60" as="geometry" />
        </mxCell>
      </root>
    </mxGraphModel>
  </diagram>
</mxfile>
